<?xml version="1.0" encoding="UTF-8" standalone="no"?>
<svg
   id="Layer_1"
   data-name="Layer 1"
   viewBox="0 0 400 300"
   width="406"
   height="306"
   class="illustration styles_illustrationTablet__1DWOa"
   version="1.1"
   sodipodi:docname="meeting.svg"
   inkscape:version="1.2.2 (b0a84865, 2022-12-01)"
   xmlns:inkscape="http://www.inkscape.org/namespaces/inkscape"
   xmlns:sodipodi="http://sodipodi.sourceforge.net/DTD/sodipodi-0.dtd"
   xmlns="http://www.w3.org/2000/svg"
   xmlns:svg="http://www.w3.org/2000/svg">
  <defs
     id="defs1569">
    <clipPath
       id="a4890c567a">
      <path
         d="M 38.125,49.917969 H 168.38672 V 236.32812 H 38.125 Z m 0,0"
         clip-rule="nonzero"
         id="path2935" />
    </clipPath>
    <clipPath
       id="0719826a48">
      <path
         d="M 62.6875,43.914062 H 179.47266 V 218.34766 H 62.6875 Z m 0,0"
         clip-rule="nonzero"
         id="path2941" />
    </clipPath>
    <clipPath
       id="a576549fa3">
      <path
         d="M 70.726562,49.917969 H 180.02734 V 212.37109 H 70.726562 Z m 0,0"
         clip-rule="nonzero"
         id="path2944" />
    </clipPath>
    <clipPath
       id="cb15fbaef9">
      <path
         d="m 118,100 h 16 v 6.28125 h -16 z m 0,0"
         clip-rule="nonzero"
         id="path2947" />
    </clipPath>
    <clipPath
       id="546b89b6ef">
      <path
         d="m 129,83.074219 h 14.63281 V 90 H 129 Z m 0,0"
         clip-rule="nonzero"
         id="path2950" />
    </clipPath>
    <clipPath
       id="d03ea12338">
      <path
         d="M 106.94922,83.074219 H 121 V 90 h -14.05078 z m 0,0"
         clip-rule="nonzero"
         id="path2953" />
    </clipPath>
    <clipPath
       id="850284fc35">
      <path
         d="m 89.488281,117 h 71.871089 v 84.57031 H 89.488281 Z m 0,0"
         clip-rule="nonzero"
         id="path2956" />
    </clipPath>
  </defs>
  <sodipodi:namedview
     id="namedview1567"
     pagecolor="#ffffff"
     bordercolor="#000000"
     borderopacity="0.25"
     inkscape:showpageshadow="2"
     inkscape:pageopacity="0.0"
     inkscape:pagecheckerboard="0"
     inkscape:deskcolor="#d1d1d1"
     showgrid="false"
     inkscape:zoom="2.0265773"
     inkscape:cx="166.29023"
     inkscape:cy="171.96482"
     inkscape:window-width="1390"
     inkscape:window-height="1027"
     inkscape:window-x="566"
     inkscape:window-y="25"
     inkscape:window-maximized="0"
     inkscape:current-layer="Layer_1" />
  <title
     id="title1412">#116_team meeting_twocolour</title>
  <ellipse
     cx="202.86"
     cy="258.95"
     rx="170.5"
     ry="13.38"
     fill="#e6e6e6"
     opacity="0.45"
     id="ellipse1414" />
  <path
     d="M108.06,244s.06,3.94,3.13,5.3,2.84,4.74-.28,4.57-9.22-6.37-9.22-6.37L104,241.8Z"
     fill="#68e1fd"
     id="path1416" />
  <path
     d="M96,202.62s18.35.81,16.35,13.26-10.1,25.92-10.1,25.92l7.06,2.95s14-16.08,15.37-35.92S97.92,193.42,96,202.62Z"
     fill="#24285b"
     id="path1418" />
  <path
     d="M96,202.62s18.35.81,16.35,13.26-10.1,25.92-10.1,25.92l7.06,2.95s14-16.08,15.37-35.92S97.92,193.42,96,202.62Z"
     opacity="0.08"
     id="path1420" />
  <path
     d="M83.31,127.32c-6.66-5.15-16.68-2.51-19.47,5.44a12,12,0,0,0-.07,7.65c3.17,10.17,8.17,24,26.83,29s34.34,8.74,35.84,2.19-2.67-14.88-18-20C97.53,147.9,91.78,133.86,83.31,127.32Z"
     fill="#68e1fd"
     id="path1422" />
  <path
     d="M83.31,127.32c-6.66-5.15-16.68-2.51-19.47,5.44a12,12,0,0,0-.07,7.65c3.17,10.17,8.17,24,26.83,29s34.34,8.74,35.84,2.19-2.67-14.88-18-20C97.53,147.9,91.78,133.86,83.31,127.32Z"
     opacity="0.08"
     id="path1424" />
  <path
     d="M122.81,244.86s0,3.94,3.13,5.3,2.84,4.74-.29,4.57-9.21-6.37-9.21-6.37l2.26-5.71Z"
     fill="#68e1fd"
     id="path1426" />
  <path
     d="M315.75,177.77,284.53,154.7s-9.81-7-11.4-1,9.7,7,9.7,7,19.1,30.55,28.68,26.91S315.75,177.77,315.75,177.77Z"
     fill="#f4a28c"
     id="path1428" />
  <path
     d="M315.75,177.77,284.53,154.7s-9.81-7-11.4-1,9.7,7,9.7,7,19.1,30.55,28.68,26.91S315.75,177.77,315.75,177.77Z"
     opacity="0.08"
     id="path1430" />
  <polygon
     points="286.17 214.56 313.99 244.85 317.83 243.19 296.84 205.9 286.17 214.56"
     fill="#f4a28c"
     id="polygon1432" />
  <path
     d="M313.48,244.08s0,3.77-2.5,5.48-.22,5.32,3.32,2a26.07,26.07,0,0,0,3-3.3,7.82,7.82,0,0,1,3.3-2.36,1.29,1.29,0,0,0,.75-1.27c.11-2.1-4.8-3-4.8-3Z"
     fill="#68e1fd"
     id="path1434" />
  <path
     d="M304.19,187.54s-38.85-.29-33.22,22.71A45.77,45.77,0,0,0,295.36,241l14-25.67L301.66,193Z"
     fill="#24285b"
     id="path1436" />
  <path
     d="M304.19,187.54s-38.85-.29-33.22,22.71A45.77,45.77,0,0,0,295.36,241l14-25.67L301.66,193Z"
     opacity="0.08"
     id="path1438" />
  <rect
     x="321.93"
     y="208.17"
     width="4.14"
     height="35.71"
     fill="#c9c9c9"
     id="rect1440" />
  <path
     d="M337.72,121.61s3.81-20.42,22.14-11.18c13.51,6.81.31,61.12-7.56,89.21a22.89,22.89,0,0,1-22.05,16.69H304.4c-7.91,0-9.32-11.27-1.66-13.22l.45-.11c4.46-1,9.69-1.84,14.45-2.47A17.67,17.67,0,0,0,333,184.36Z"
     fill="#e6e6e6"
     id="path1442" />
  <path
     d="M319.35,102.22a25.78,25.78,0,0,0,.85,6.78,2.07,2.07,0,0,0,2.63,1.29,4.57,4.57,0,0,0,3.29-3.7l.95-3.67a3.69,3.69,0,0,0-1.92-3.81C322.71,97.63,319.25,99.72,319.35,102.22Z"
     fill="#f4a28c"
     id="path1444" />
  <polygon
     points="327.68 105.09 328.84 118.51 321.4 118.63 323.49 109.06 327.68 105.09"
     fill="#f4a28c"
     id="polygon1446" />
  <path
     d="M319.46,104.81l-1,1.67a.66.66,0,0,0,.49,1l1.59.17Z"
     fill="#f4a28c"
     id="path1448" />
  <path
     d="M323.43,109.33a5,5,0,0,0,2.4-1.19s.53,2.9-3,3.93Z"
     fill="#ce8172"
     opacity="0.31"
     id="path1450" />
  <polygon
     points="279.64 208.17 279.64 249.29 283.6 250.66 293.36 209 279.64 208.17"
     fill="#f4a28c"
     id="polygon1452" />
  <path
     d="M279.79,248.38s-2.59,2.75-5.55,2.35-3.77,3.77,1.06,3.75a26.82,26.82,0,0,0,4.48-.38,7.81,7.81,0,0,1,4,.49,1.31,1.31,0,0,0,1.42-.42c1.49-1.48-1.53-5.45-1.53-5.45Z"
     fill="#68e1fd"
     id="path1454" />
  <path
     d="M327.4,105.13s-.1-1.58,1.1-1.55,1.34,2.31-.26,2.65Z"
     fill="#f4a28c"
     id="path1456" />
  <path
     d="M320.19,102a12.3,12.3,0,0,0,3.95,0s.84,4.56,4.46,5.71c0,0,3.43-6.82-.78-9.46-3.52-2.21-6.15-4.17-9.05-1.54A3.08,3.08,0,0,0,320.19,102Z"
     fill="#24285b"
     id="path1458" />
  <circle
     cx="330.17"
     cy="96.27"
     r="4.09"
     fill="#24285b"
     id="circle1460" />
  <path
     d="M324.07,104.36s.18-1.83,1.64-1.54,1.44,2.42-.4,3.26Z"
     fill="#f4a28c"
     id="path1462" />
  <path
     d="M320.88,120.76l7.27-2.09s19.41,2.09,19.21,17.66c-.15,11.54-13.62,54.67-13.62,54.67H304.19V175.81a44.31,44.31,0,0,0-4.91-20.68C294.71,146.47,292.32,131.4,320.88,120.76Z"
     fill="#68e1fd"
     id="path1464" />
  <path
     d="M315.38,139.27c1.19-13.68,20.55-15.38,24.29-2.17,2,7,3,17.1.7,31.31-5.51,34.26-71.51,12-71.51,12v-8.12s39,7.34,48.37-2.66C322.74,163.77,314.42,150.34,315.38,139.27Z"
     fill="#68e1fd"
     id="path1466" />
  <path
     d="M304.19,183.9l29.55,7.1s1.43,12.75-8.85,13.75-41.78-2.5-29.53,36.25H271s-14.81-41.64,21.39-50c4.39-1,11.75-1.84,11.82-6.35Z"
     fill="#24285b"
     id="path1468"
     style="fill:#457b55;fill-opacity:1" />
  <path
     d="M172,108.51a42.53,42.53,0,0,0-20.47,34.22c-1.26,22.7.8,47.05,29.57,44.32S172,108.51,172,108.51Z"
     fill="#68e1fd"
     id="path1470" />
  <path
     d="M172,108.51a42.53,42.53,0,0,0-20.47,34.22c-1.26,22.7.8,47.05,29.57,44.32S172,108.51,172,108.51Z"
     opacity="0.08"
     id="path1472" />
  <path
     d="M189.45,84.77a30,30,0,0,0,0,8,2.41,2.41,0,0,0,2.86,1.86,5.32,5.32,0,0,0,4.33-3.81l1.62-4.13A4.3,4.3,0,0,0,196.61,82C194,79.92,189.69,81.86,189.45,84.77Z"
     fill="#f4a28c"
     id="path1474" />
  <polygon
     points="198.01 87.41 199.79 103.02 191.12 103.39 193.3 91.88 198.01 87.41"
     fill="#f4a28c"
     id="polygon1476" />
  <path
     d="M189.21,87.79l-1.41,1.78a.77.77,0,0,0,.43,1.23l1.81.42Z"
     fill="#f4a28c"
     id="path1478" />
  <path
     d="M192.72,94.38a5.62,5.62,0,0,0,2.87-1.55s-.25,2.87-3.52,5.56Z"
     fill="#ce8172"
     opacity="0.31"
     id="path1480" />
  <path
     d="M181.49,104.76s37.19-8.33,50.51-.86-12.82,77.85-12.82,77.85l-41.07-1.3S142.18,111.91,181.49,104.76Z"
     fill="#68e1fd"
     id="path1482" />
  <path
     d="M189.8,247.84s-1.92,3.45-5.27,3.19-4.74,2.83-1.91,4.16,11.13-1.25,11.13-1.25l.71-6.1Z"
     fill="#68e1fd"
     id="path1484" />
  <path
     d="M219.88,247.08s1.36,3.7,4.72,3.95,4.25,3.53,1.25,4.41S215,252.5,215,252.5l.23-6.13Z"
     fill="#68e1fd"
     id="path1486" />
  <path
     d="M213.78,110.43S202,118,208,135.42s6.95,29.86-7.16,25.5-13.08-23.83-13.08-23.83l-14.39,2.23L172,166.94l6.11,13.51,35.67-2.24,14.54-3.71,5.42-18.22-9.87-30.87Z"
     opacity="0.08"
     id="path1488" />
  <path
     d="M178.11,180.45l10.51,67.39h6.86s-6.36-50.68,4.75-56.8,13.29,56.8,13.29,56.8l7.29-.58-.09-69.48Z"
     fill="#24285b"
     id="path1490"
     style="fill:#457b55;fill-opacity:1" />
  <path
     d="M221,101.69s23.14-3.9,23.14,32.51-5.56,68.81-59,36.34l4.06-6.2S218,177,224.15,165.88,200.12,107.86,221,101.69Z"
     fill="#68e1fd"
     id="path1492" />
  <path
     d="M221,101.69s23.14-3.9,23.14,32.51-5.56,68.81-59,36.34l4.06-6.2S218,177,224.15,165.88,200.12,107.86,221,101.69Z"
     fill="#fff"
     opacity="0.46"
     id="path1494" />
  <rect
     x="162.53"
     y="136.08"
     width="20.2"
     height="30.23"
     transform="translate(-31.67 46.68) rotate(-14.12)"
     fill="#ffd200"
     id="rect1496" />
  <path
     d="M189.27,164.34s-9.64-7.64-11.16-1.8,8.49,5.87,8.49,5.87Z"
     fill="#f4a28c"
     id="path1498" />
  <polygon
     points="219.88 59.54 211.44 73.9 225.34 63.59 219.88 59.54"
     fill="#24285b"
     id="polygon1502" />
  <circle
     cx="227.08"
     cy="50.53"
     r="2.93"
     fill="#fff"
     id="circle1504" />
  <circle
     cx="236.47"
     cy="50.53"
     r="2.93"
     fill="#fff"
     id="circle1506" />
  <circle
     cx="223.39706"
     cy="38.862385"
     r="2.9300001"
     fill="#ffffff"
     id="circle1508" />
  <path
     d="M190.38,85a9.36,9.36,0,0,0,1.08.29,7.43,7.43,0,0,1,1.51.5l.39.17a1.53,1.53,0,0,1,.92,1.42c0,1.53.48,4.34,4.18,4.66,0,0,3.76-5.64.75-10a9.94,9.94,0,0,0-7.58-4C187.6,77.9,186.55,83.71,190.38,85Z"
     fill="#24285b"
     id="path1510" />
  <rect
     x="81.73"
     y="208.17"
     width="4.14"
     height="35.71"
     transform="translate(167.61 452.04) rotate(-180)"
     fill="#c9c9c9"
     id="rect1512" />
  <path
     d="M70.09,121.61S66.28,101.19,48,110.43c-13.51,6.81-.31,61.12,7.56,89.21a22.89,22.89,0,0,0,22.05,16.69h25.85c7.91,0,9.32-11.27,1.66-13.22l-.45-.11c-4.46-1-9.69-1.84-14.45-2.47a17.67,17.67,0,0,1-15.33-16.17Z"
     fill="#e6e6e6"
     id="path1514" />
  <polygon
     points="85.88 243.88 100.7 255.57 67.7 255.57 81.73 243.88 85.88 243.88"
     fill="#c9c9c9"
     id="polygon1516" />
  <path
     d="M83.47,94.88a29.66,29.66,0,0,1,.55,7.84,2.37,2.37,0,0,1-2.68,2,5.27,5.27,0,0,1-4.54-3.44l-1.89-3.93a4.24,4.24,0,0,1,1.33-4.73C78.66,90.45,83,92,83.47,94.88Z"
     fill="#f4a28c"
     id="path1518" />
  <polygon
     points="75.25 98.1 74.64 113.58 83.19 113.31 80.21 102.16 75.25 98.1"
     fill="#f4a28c"
     id="polygon1520" />
  <path
     d="M82.33,95.22A19.06,19.06,0,0,1,78,95.4a3.93,3.93,0,0,1,.51,4.29,3.21,3.21,0,0,1-3.7,1.73l-.63-6a4.8,4.8,0,0,1,1.91-4.55A17.59,17.59,0,0,1,78,89.61c1.65-.91,4.34,0,5.75-1.41a1.15,1.15,0,0,1,1.89.53c.49,1.81.5,4.73-1.86,6A4.61,4.61,0,0,1,82.33,95.22Z"
     fill="#24285b"
     id="path1522" />
  <path
     d="M79,99.49s-.25-1.8-1.59-1.5-1,2.91.88,2.93Z"
     fill="#f4a28c"
     id="path1524" />
  <path
     d="M83.93,97.83l1.52,1.65a.76.76,0,0,1-.33,1.24l-1.75.55Z"
     fill="#f4a28c"
     id="path1526" />
  <path
     d="M81,104.57A5.6,5.6,0,0,1,78,103.26s.46,2.8,3.88,5.21Z"
     fill="#ce8172"
     opacity="0.31"
     id="path1528" />
  <path
     d="M74.64,113.58l8.55-.27s18.77,4,23.37,27.83S98,186.28,98,186.28l-27,.24S35.2,117.61,74.64,113.58Z"
     fill="#68e1fd"
     id="path1530" />
  <path
     d="M71,186.52s.36,15.48,10.84,16.81,34.48-6.73,37.48,6.34-3,33.85-3,33.85l7.31,2s16.42-31.42,6.75-46.32-32.35-13-32.35-13Z"
     fill="#24285b"
     id="path1532"
     style="fill:#457b55;fill-opacity:1" />
  <path
     d="M68,130.76s-6.86,19.17,5,29.58S91.67,172,85.65,186.52L98,186.28s6.49-11.8,7.8-20.16S68,130.76,68,130.76Z"
     opacity="0.08"
     id="path1534" />
  <path
     d="M88.14,121.33c-6.66-5.15-16.68-2.51-19.47,5.44a12,12,0,0,0-.07,7.65c3.17,10.17,8.17,24,26.84,29s34.33,8.74,35.83,2.2-2.67-14.88-18-20C102.37,141.91,96.61,127.87,88.14,121.33Z"
     fill="#68e1fd"
     id="path1536" />
  <path
     d="M88.14,121.33c-6.66-5.15-16.68-2.51-19.47,5.44a12,12,0,0,0-.07,7.65c3.17,10.17,8.17,24,26.84,29s34.33,8.74,35.83,2.2-2.67-14.88-18-20C102.37,141.91,96.61,127.87,88.14,121.33Z"
     fill="#fff"
     opacity="0.46"
     id="path1538" />
  <path
     d="M110.13,144.18s5.17-3.82,9.17,0S115.38,153.49,110.13,144.18Z"
     fill="#f4a28c"
     id="path1540" />
  <path
     d="M318.83,131.62s-14.41,5.21-9.47,22.71-5.18,20.17-5.18,20.17l13.05,12.76L333.74,191l5.17-17.41Z"
     opacity="0.08"
     id="path1542" />
  <rect
     x="128.56"
     y="188.74"
     width="6.72"
     height="67.26"
     fill="#a5a5a5"
     id="rect1544" />
  <rect
     x="267.61"
     y="188.74"
     width="6.72"
     height="67.26"
     fill="#a5a5a5"
     id="rect1546" />
  <rect
     x="121.78"
     y="178.2"
     width="158.76"
     height="17.71"
     fill="#e6e6e6"
     id="rect1548" />
  <path
     d="M194.36,90a1.2,1.2,0,0,1-.17-1.18c.27-.65.8-1.5,1.67-1.37s1.06,1.56.45,2.51a1.2,1.2,0,0,1-1.95,0Z"
     fill="#f4a28c"
     id="path1550" />
  <path
     d="M315.38,139.27c1.19-13.68,20.55-15.38,24.29-2.17,2,7,3,17.1.7,31.31-5.51,34.26-71.51,12-71.51,12v-8.12s39,7.34,48.37-2.66C322.74,163.77,314.42,150.34,315.38,139.27Z"
     fill="#f4a28c"
     id="path1552" />
  <polygon
     points="233.78 178.2 225.23 146.33 229.38 145.44 237.44 173.33 260.77 175.33 260.77 178.2 233.78 178.2"
     fill="#ffd200"
     id="polygon1554" />
  <path
     d="M268.86,172.33s-8.56-4.16-11.25-.83.42,8.33,11.25,8.95Z"
     fill="#f4a28c"
     id="path1556" />
  <rect
     x="267.61"
     y="170.88"
     width="3.87"
     height="10.88"
     transform="translate(18.84 -25.89) rotate(5.7)"
     fill="#68e1fd"
     id="rect1558" />
  <polygon
     points="321.93 243.88 307.11 255.57 340.11 255.57 326.08 243.88 321.93 243.88"
     fill="#c9c9c9"
     id="polygon1560" />
  <path
     d="M317.23,122.21a4.76,4.76,0,0,1,2.77-5.38c3.69-1.83,12.44-4,13.74,3.14C333.74,120,325.61,125.26,317.23,122.21Z"
     fill="#68e1fd"
     id="path1562" />
  <path
     d="M317.23,122.21a4.76,4.76,0,0,1,2.77-5.38c3.69-1.83,12.44-4,13.74,3.14C333.74,120,325.61,125.26,317.23,122.21Z"
     fill="#fff"
     opacity="0.46"
     id="path1564" />
  <g
     clip-path="url(#a4890c567a)"
     id="g2963"
     transform="matrix(0.40400286,0,0,0.40400286,202.41443,-16.023076)">
    <path
       fill="#3d573a"
       d="m 157.83594,132.86719 -0.004,-0.0156 c -4.07031,-8.40625 -7.90625,-16.34765 -7.90625,-25.79297 0,-17.503902 -4.67969,-32.144528 -13.53516,-42.335934 -6.16796,-7.089844 -14.31249,-11.867187 -23.5664,-13.804687 l -3.51172,-0.59375 -0.0625,-0.0078 c -0.0742,-0.0078 -0.14844,-0.01563 -0.22266,-0.02344 l -0.13671,-0.01172 c -0.69141,-0.08594 -1.41016,-0.15625 -2.14063,-0.210938 -0.082,-0.0039 -0.16016,-0.01172 -0.24219,-0.01953 -0.15625,-0.01172 -0.3125,-0.02344 -0.46093,-0.03125 -1.05469,-0.0625 -1.94141,-0.08984 -2.78516,-0.08984 -0.84375,0 -1.73438,0.02734 -2.78516,0.08984 -0.15625,0.0078 -0.3164,0.01953 -0.47265,0.03516 l -0.250004,0.01562 c -0.78125,0.0625 -1.476562,0.128907 -2.128906,0.207032 l -0.136719,0.01172 c -0.07813,0.0078 -0.152343,0.01172 -0.226562,0.02344 l -3.523438,0.589844 -0.05469,0.0078 C 84.429688,52.855469 76.289062,57.632812 70.125,64.722656 61.269531,74.914062 56.589844,89.550781 56.589844,107.05469 c 0,9.4375 -3.839844,17.38281 -7.90625,25.79687 C 43.734375,143.08594 38.125,154.68359 38.125,171.21875 c 0,35.89453 29.21875,65.09766 65.13281,65.09766 35.91797,0 65.13672,-29.19922 65.13672,-65.09375 0,-16.52344 -5.60937,-28.1211 -10.55859,-38.35547 z m 0,0"
       fill-opacity="1"
       fill-rule="nonzero"
       id="path2961" />
  </g>
  <g
     clip-path="url(#0719826a48)"
     id="g2971"
     transform="matrix(0.40400286,0,0,0.40400286,202.41443,-16.023076)">
    <path
       fill="#86cd60"
       d="m 121.08203,218.34766 c -32.195311,0 -58.386718,-26.2461 -58.386718,-58.50782 0,-15.0625 5.0625,-25.5625 9.964844,-35.72265 4.351563,-9.02735 8.855469,-18.35938 8.855469,-29.83594 0,-15.929688 4.089844,-29.070312 11.835937,-38.007812 5.097657,-5.882813 11.835938,-9.859376 19.488278,-11.5 l 3.17188,-0.53125 c 0.0937,-0.0078 0.19141,-0.01953 0.28516,-0.03125 0.53906,-0.0625 1.13671,-0.121094 1.8164,-0.175782 0.0937,-0.0039 0.1875,-0.01172 0.28125,-0.01953 h 0.0195 c 0.0937,-0.0078 0.17188,-0.01563 0.25782,-0.01953 h 0.0312 c 0.91406,-0.05469 1.66796,-0.08203 2.3789,-0.08203 0.71094,0 1.46875,0.02734 2.38281,0.07813 h 0.0273 c 0.082,0 0.16406,0.01172 0.24609,0.01953 h 0.0234 l 0.30469,0.02344 c 0.61328,0.04687 1.22656,0.101563 1.80859,0.175782 0.0937,0.01172 0.18359,0.01953 0.28516,0.03125 l 3.17578,0.535156 c 7.64843,1.648437 14.375,5.617187 19.47265,11.5 7.73828,8.9375 11.83594,22.078125 11.83594,38.007812 0,11.484374 4.50391,20.816404 8.85547,29.839844 l 0.0156,0.0234 c 4.89063,10.15234 9.94922,20.65234 9.94922,35.69531 0,32.26172 -26.1914,58.50391 -58.38281,58.50391 z m 0,0"
       fill-opacity="1"
       fill-rule="nonzero"
       id="path2969" />
  </g>
  <g
     clip-path="url(#a576549fa3)"
     id="g2975"
     transform="matrix(0.40400286,0,0,0.40400286,202.41443,-16.023076)">
    <path
       fill="#e5ff7f"
       d="m 125.375,212.37109 c -30.125,0 -54.636719,-24.44531 -54.636719,-54.49218 0,-14.02735 4.738281,-23.80469 9.324219,-33.26563 4.074219,-8.41015 8.289062,-17.10156 8.289062,-27.789061 0,-14.835938 3.828126,-27.074219 11.074219,-35.398438 4.773439,-5.476562 11.078129,-9.179687 18.242189,-10.710937 l 2.96484,-0.492188 c 0.0859,-0.0078 0.17969,-0.01953 0.26563,-0.03125 0.50781,-0.05859 1.0664,-0.113281 1.70312,-0.160156 0.0859,-0.0078 0.17578,-0.01563 0.26172,-0.01953 h 0.0195 c 0.0859,-0.0078 0.16016,-0.01563 0.23828,-0.01953 h 0.0273 c 0.85937,-0.05469 1.5664,-0.07422 2.23047,-0.07422 0.66406,0 1.37109,0.01953 2.23047,0.07031 h 0.0273 c 0.0742,0 0.14844,0.01172 0.22656,0.01953 h 0.0234 l 0.28125,0.01953 c 0.57812,0.04297 1.14844,0.09375 1.69531,0.164062 0.0859,0.01172 0.17188,0.01953 0.26563,0.02734 l 2.97265,0.5 c 7.16016,1.535156 13.45313,5.234375 18.22266,10.710938 7.24219,8.324218 11.07812,20.5625 11.07812,35.398437 0,10.695313 4.21485,19.386713 8.28907,27.789063 l 0.0117,0.0234 c 4.57813,9.45703 9.3086,19.23046 9.3086,33.24218 0,30.05078 -24.50781,54.48828 -54.63672,54.48828 z m 0,0"
       fill-opacity="1"
       fill-rule="nonzero"
       id="path2973" />
  </g>
  <g
     clip-path="url(#cb15fbaef9)"
     id="g2979"
     transform="matrix(0.40400286,0,0,0.40400286,202.41443,-16.023076)">
    <path
       fill="#457b55"
       d="m 126.25,106.28125 c -4.34375,0 -7.03125,-3.82422 -7.14062,-3.98437 -0.10157,-0.15235 -0.17188,-0.32032 -0.21094,-0.4961 -0.0352,-0.17969 -0.0352,-0.35937 -0.004,-0.53906 0.0352,-0.17969 0.0977,-0.34766 0.19531,-0.5 0.10157,-0.15625 0.22266,-0.28516 0.3711,-0.39063 0.14844,-0.10156 0.3125,-0.17578 0.48828,-0.21484 0.17969,-0.043 0.35547,-0.0469 0.53516,-0.0156 0.17968,0.0312 0.34375,0.0937 0.5,0.1914 0.15234,0.0977 0.28515,0.21875 0.39062,0.36719 0.0352,0.0469 2.00391,2.79297 4.875,2.79297 2.88281,0 4.86719,-2.76953 4.88672,-2.79688 0.10547,-0.14843 0.23828,-0.27343 0.39062,-0.375 0.15625,-0.0977 0.32422,-0.16406 0.50391,-0.19531 0.17969,-0.0312 0.35937,-0.0273 0.53906,0.0117 0.17969,0.043 0.34375,0.11328 0.49219,0.22266 0.15234,0.10546 0.27734,0.23437 0.375,0.39062 0.0977,0.15625 0.16016,0.32422 0.19531,0.50781 0.0312,0.1836 0.0273,0.36328 -0.0156,0.54297 -0.0391,0.17969 -0.10938,0.34766 -0.21485,0.5 -0.11328,0.16016 -2.80859,3.98047 -7.15234,3.98047 z m 0,0"
       fill-opacity="1"
       fill-rule="nonzero"
       id="path2977" />
  </g>
  <g
     clip-path="url(#546b89b6ef)"
     id="g2983"
     transform="matrix(0.40400286,0,0,0.40400286,202.41443,-16.023076)">
    <path
       fill="#457b55"
       d="m 131.02734,89.019531 c -0.25781,0 -0.49609,-0.06641 -0.71875,-0.199219 -0.21875,-0.136718 -0.39062,-0.320312 -0.50781,-0.550781 -0.12109,-0.230469 -0.17187,-0.476562 -0.15234,-0.734375 0.0156,-0.261718 0.0977,-0.496094 0.24609,-0.710937 0.10938,-0.152344 2.64453,-3.75 6.73828,-3.75 4.09375,0 6.625,3.601562 6.73047,3.753906 0.10156,0.152344 0.17188,0.316406 0.20703,0.496094 0.0391,0.179687 0.0391,0.359375 0.008,0.539062 -0.0352,0.179688 -0.10156,0.347657 -0.19921,0.5 -0.0977,0.152344 -0.21875,0.28125 -0.3711,0.386719 -0.14844,0.105469 -0.30859,0.179688 -0.48828,0.21875 -0.17578,0.03906 -0.35156,0.04297 -0.53125,0.01563 -0.17969,-0.03125 -0.34766,-0.09766 -0.5,-0.191406 -0.15625,-0.09766 -0.28516,-0.21875 -0.39062,-0.367188 -0.0195,-0.03125 -1.83204,-2.5625 -4.46485,-2.5625 -2.6289,0 -4.45703,2.539063 -4.47265,2.5625 -0.27344,0.398438 -0.65235,0.597657 -1.13282,0.59375 z m 0,0"
       fill-opacity="1"
       fill-rule="nonzero"
       id="path2981" />
  </g>
  <g
     clip-path="url(#d03ea12338)"
     id="g2987"
     transform="matrix(0.40400286,0,0,0.40400286,202.41443,-16.023076)">
    <path
       fill="#457b55"
       d="m 108.35156,89.019531 c -0.25781,0 -0.5,-0.06641 -0.71875,-0.199219 -0.22265,-0.136718 -0.39062,-0.320312 -0.51172,-0.550781 -0.11718,-0.230469 -0.16796,-0.476562 -0.15234,-0.734375 0.0156,-0.261718 0.10156,-0.496094 0.25,-0.710937 0.10547,-0.152344 2.64453,-3.75 6.73438,-3.75 4.09375,0 6.625,3.601562 6.73046,3.753906 0.10547,0.152344 0.17969,0.316406 0.21875,0.496094 0.0391,0.183593 0.043,0.363281 0.0117,0.546875 -0.0352,0.179687 -0.0977,0.351562 -0.19922,0.503906 -0.0977,0.15625 -0.22265,0.289062 -0.37109,0.394531 -0.15234,0.105469 -0.31641,0.179688 -0.49609,0.21875 -0.17969,0.03906 -0.35938,0.04297 -0.53907,0.01172 -0.17968,-0.03516 -0.34765,-0.101562 -0.5,-0.199219 -0.15625,-0.09766 -0.28515,-0.226562 -0.39062,-0.375 -0.0312,-0.05078 -1.84375,-2.5625 -4.46484,-2.5625 -2.63282,0 -4.45313,2.539063 -4.47266,2.5625 -0.27344,0.398438 -0.65234,0.597657 -1.12891,0.59375 z m 0,0"
       fill-opacity="1"
       fill-rule="nonzero"
       id="path2985" />
  </g>
  <g
     clip-path="url(#850284fc35)"
     id="g2991"
     transform="matrix(0.40400286,0,0,0.40400286,202.41443,-16.023076)">
    <path
       fill="#924405"
       d="m 160.57422,129.3125 c -1.0625,-1.19922 -2.82422,-0.88281 -4.2461,-1.20313 -10.27343,-1.67968 -19.92968,-5.85156 -29.15234,-10.52343 -0.4375,-0.20703 -0.89453,-0.38672 -1.35547,-0.54688 h -0.66406 c -1.60156,0.47657 -3.01953,1.38282 -4.53125,2.07813 -8.08594,3.94531 -16.57031,7.34375 -25.488281,8.89843 -1.28125,0.25782 -2.617188,0.23829 -3.871094,0.60938 -0.996094,0.4375 -1.726563,1.47266 -1.671875,2.57031 -0.101562,6.10547 0.121094,12.21875 0.601562,18.30469 0.695313,7.74609 1.816407,15.53906 4.441407,22.89844 1.273437,3.41406 2.890625,6.77343 5.328125,9.52734 6.656246,7.82031 14.921876,14.23438 23.968746,19.11328 0.38282,0.19141 0.78516,0.34375 1.19922,0.46875 h 0.57813 c 1.61328,-0.45312 2.94531,-1.51953 4.42187,-2.26953 7.01172,-4.12109 13.42188,-9.25 18.94531,-15.19922 1.66797,-1.875 3.38282,-3.75 4.57422,-5.96875 2.77735,-4.89844 4.24219,-10.39844 5.33985,-15.875 1.88672,-9.98437 2.375,-20.17969 2.3164,-30.3164 0.0312,-0.90625 -0.0391,-1.89844 -0.73437,-2.56641 z m -3.89844,30.63672 c -1.12891,6.15234 -2.59766,12.41406 -5.92578,17.79687 -2.95703,4.25 -6.76953,7.83594 -10.66797,11.21485 -4.5,3.8164 -9.44531,7.08203 -14.63672,9.89843 -9.10547,-4.91015 -17.44531,-11.36328 -24.02734,-19.34375 -3.390626,-4.30859 -4.996095,-9.67187 -6.265626,-14.91015 -2.453125,-10.98828 -3.03125,-22.30469 -2.875,-33.53516 11.749996,-1.3164 22.726566,-6.11718 33.171876,-11.375 10.4414,5.26563 21.42969,10.05078 33.18359,11.3711 0.14453,9.65625 -0.32031,19.35156 -1.95703,28.88281 z m 0,0"
       fill-opacity="1"
       fill-rule="nonzero"
       id="path2989" />
  </g>
  <path
     fill="#924405"
     d="m 241.82681,38.782433 c 0.0789,4.19784 0.32194,8.43988 1.43926,12.50831 0.43714,1.49923 1.00053,3.02371 2.0784,4.19469 2.16678,2.57394 4.85593,4.67444 7.75181,6.38356 3.0821,-1.81959 5.92748,-4.08895 8.16685,-6.88383 1.05893,-1.44557 1.56236,-3.20046 1.97741,-4.9159 0.83483,-3.69915 1.05893,-7.50561 1.12205,-11.28525 -3.94376,-0.75592 -7.6871,-2.28198 -11.26789,-4.05738 -3.58079,1.7754 -7.32255,3.30303 -11.26789,4.0558 z m 0,0"
     fill-opacity="1"
     fill-rule="nonzero"
     id="path2993"
     style="stroke-width:0.404003" />
</svg>
