<svg xmlns="http://www.w3.org/2000/svg" xmlns:xlink="http://www.w3.org/1999/xlink" width="296" zoomAndPan="magnify" viewBox="0 0 222 274.499992" height="366" preserveAspectRatio="xMidYMid meet" version="1.0"><defs><clipPath id="a4890c567a"><path d="M 38.125 49.917969 L 168.386719 49.917969 L 168.386719 236.328125 L 38.125 236.328125 Z M 38.125 49.917969 " clip-rule="nonzero"/></clipPath><clipPath id="f79b416d23"><path d="M 53.90625 37.710938 L 184.171875 37.710938 L 184.171875 224.121094 L 53.90625 224.121094 Z M 53.90625 37.710938 " clip-rule="nonzero"/></clipPath><clipPath id="0719826a48"><path d="M 62.6875 43.914062 L 179.472656 43.914062 L 179.472656 218.347656 L 62.6875 218.347656 Z M 62.6875 43.914062 " clip-rule="nonzero"/></clipPath><clipPath id="a576549fa3"><path d="M 70.726562 49.917969 L 180.027344 49.917969 L 180.027344 212.371094 L 70.726562 212.371094 Z M 70.726562 49.917969 " clip-rule="nonzero"/></clipPath><clipPath id="cb15fbaef9"><path d="M 118 100 L 134 100 L 134 106.28125 L 118 106.28125 Z M 118 100 " clip-rule="nonzero"/></clipPath><clipPath id="546b89b6ef"><path d="M 129 83.074219 L 143.632812 83.074219 L 143.632812 90 L 129 90 Z M 129 83.074219 " clip-rule="nonzero"/></clipPath><clipPath id="d03ea12338"><path d="M 106.949219 83.074219 L 121 83.074219 L 121 90 L 106.949219 90 Z M 106.949219 83.074219 " clip-rule="nonzero"/></clipPath><clipPath id="850284fc35"><path d="M 89.488281 117 L 161.359375 117 L 161.359375 201.570312 L 89.488281 201.570312 Z M 89.488281 117 " clip-rule="nonzero"/></clipPath></defs><g clip-path="url(#a4890c567a)"><path fill="#3d573a" d="M 157.835938 132.867188 L 157.832031 132.851562 C 153.761719 124.445312 149.925781 116.503906 149.925781 107.058594 C 149.925781 89.554688 145.246094 74.914062 136.390625 64.722656 C 130.222656 57.632812 122.078125 52.855469 112.824219 50.917969 L 109.3125 50.324219 L 109.25 50.316406 C 109.175781 50.308594 109.101562 50.300781 109.027344 50.292969 L 108.890625 50.28125 C 108.199219 50.195312 107.480469 50.125 106.75 50.070312 C 106.667969 50.066406 106.589844 50.058594 106.507812 50.050781 C 106.351562 50.039062 106.195312 50.027344 106.046875 50.019531 C 104.992188 49.957031 104.105469 49.929688 103.261719 49.929688 C 102.417969 49.929688 101.527344 49.957031 100.476562 50.019531 C 100.320312 50.027344 100.160156 50.039062 100.003906 50.054688 L 99.753906 50.070312 C 98.972656 50.132812 98.277344 50.199219 97.625 50.277344 L 97.488281 50.289062 C 97.410156 50.296875 97.335938 50.300781 97.261719 50.3125 L 93.738281 50.902344 L 93.683594 50.910156 C 84.429688 52.855469 76.289062 57.632812 70.125 64.722656 C 61.269531 74.914062 56.589844 89.550781 56.589844 107.054688 C 56.589844 116.492188 52.75 124.4375 48.683594 132.851562 C 43.734375 143.085938 38.125 154.683594 38.125 171.21875 C 38.125 207.113281 67.34375 236.316406 103.257812 236.316406 C 139.175781 236.316406 168.394531 207.117188 168.394531 171.222656 C 168.394531 154.699219 162.785156 143.101562 157.835938 132.867188 Z M 157.835938 132.867188 " fill-opacity="1" fill-rule="nonzero"/></g><g clip-path="url(#f79b416d23)"><path fill="#3d863a" d="M 173.621094 120.664062 L 173.613281 120.648438 C 169.546875 112.246094 165.703125 104.308594 165.703125 94.867188 C 165.703125 77.367188 161.027344 62.738281 152.167969 52.550781 C 146.003906 45.460938 137.859375 40.6875 128.609375 38.746094 L 125.09375 38.152344 L 125.035156 38.144531 C 124.960938 38.136719 124.886719 38.128906 124.8125 38.125 L 124.675781 38.109375 C 123.984375 38.027344 123.265625 37.960938 122.535156 37.90625 C 122.453125 37.898438 122.371094 37.890625 122.289062 37.886719 C 122.132812 37.871094 121.980469 37.859375 121.832031 37.851562 C 120.777344 37.792969 119.890625 37.761719 119.042969 37.761719 C 118.191406 37.761719 117.308594 37.789062 116.257812 37.851562 C 116.097656 37.863281 115.941406 37.875 115.785156 37.886719 L 115.539062 37.90625 C 114.757812 37.964844 114.058594 38.035156 113.40625 38.113281 L 113.269531 38.125 C 113.195312 38.132812 113.121094 38.136719 113.046875 38.144531 L 109.523438 38.734375 L 109.46875 38.746094 C 100.21875 40.6875 92.070312 45.460938 85.914062 52.546875 C 77.054688 62.734375 72.375 77.367188 72.375 94.863281 C 72.375 104.300781 68.53125 112.238281 64.464844 120.648438 C 59.515625 130.875 53.90625 142.46875 53.90625 158.996094 C 53.90625 194.875 83.125 224.066406 119.039062 224.066406 C 154.953125 224.066406 184.171875 194.875 184.171875 159 C 184.171875 142.484375 178.566406 130.890625 173.621094 120.664062 Z M 173.621094 120.664062 " fill-opacity="1" fill-rule="nonzero"/></g><g clip-path="url(#0719826a48)"><path fill="#86cd60" d="M 121.082031 218.347656 C 88.886719 218.347656 62.695312 192.101562 62.695312 159.839844 C 62.695312 144.777344 67.757812 134.277344 72.660156 124.117188 C 77.011719 115.089844 81.515625 105.757812 81.515625 94.28125 C 81.515625 78.351562 85.605469 65.210938 93.351562 56.273438 C 98.449219 50.390625 105.1875 46.414062 112.839844 44.773438 L 116.011719 44.242188 C 116.105469 44.234375 116.203125 44.222656 116.296875 44.210938 C 116.835938 44.148438 117.433594 44.089844 118.113281 44.035156 C 118.207031 44.03125 118.300781 44.023438 118.394531 44.015625 L 118.414062 44.015625 C 118.507812 44.007812 118.585938 44 118.671875 43.996094 L 118.703125 43.996094 C 119.617188 43.941406 120.371094 43.914062 121.082031 43.914062 C 121.792969 43.914062 122.550781 43.941406 123.464844 43.992188 L 123.492188 43.992188 C 123.574219 43.992188 123.65625 44.003906 123.738281 44.011719 L 123.761719 44.011719 L 124.066406 44.035156 C 124.679688 44.082031 125.292969 44.136719 125.875 44.210938 C 125.96875 44.222656 126.058594 44.230469 126.160156 44.242188 L 129.335938 44.777344 C 136.984375 46.425781 143.710938 50.394531 148.808594 56.277344 C 156.546875 65.214844 160.644531 78.355469 160.644531 94.285156 C 160.644531 105.769531 165.148438 115.101562 169.5 124.125 L 169.515625 124.148438 C 174.40625 134.300781 179.464844 144.800781 179.464844 159.84375 C 179.464844 192.105469 153.273438 218.347656 121.082031 218.347656 Z M 121.082031 218.347656 " fill-opacity="1" fill-rule="nonzero"/></g><g clip-path="url(#a576549fa3)"><path fill="#e5ff7f" d="M 125.375 212.371094 C 95.25 212.371094 70.738281 187.925781 70.738281 157.878906 C 70.738281 143.851562 75.476562 134.074219 80.0625 124.613281 C 84.136719 116.203125 88.351562 107.511719 88.351562 96.824219 C 88.351562 81.988281 92.179688 69.75 99.425781 61.425781 C 104.199219 55.949219 110.503906 52.246094 117.667969 50.714844 L 120.632812 50.222656 C 120.71875 50.214844 120.8125 50.203125 120.898438 50.191406 C 121.40625 50.132812 121.964844 50.078125 122.601562 50.03125 C 122.6875 50.023438 122.777344 50.015625 122.863281 50.011719 L 122.882812 50.011719 C 122.96875 50.003906 123.042969 49.996094 123.121094 49.992188 L 123.148438 49.992188 C 124.007812 49.9375 124.714844 49.917969 125.378906 49.917969 C 126.042969 49.917969 126.75 49.9375 127.609375 49.988281 L 127.636719 49.988281 C 127.710938 49.988281 127.785156 50 127.863281 50.007812 L 127.886719 50.007812 L 128.167969 50.027344 C 128.746094 50.070312 129.316406 50.121094 129.863281 50.191406 C 129.949219 50.203125 130.035156 50.210938 130.128906 50.21875 L 133.101562 50.71875 C 140.261719 52.253906 146.554688 55.953125 151.324219 61.429688 C 158.566406 69.753906 162.402344 81.992188 162.402344 96.828125 C 162.402344 107.523438 166.617188 116.214844 170.691406 124.617188 L 170.703125 124.640625 C 175.28125 134.097656 180.011719 143.871094 180.011719 157.882812 C 180.011719 187.933594 155.503906 212.371094 125.375 212.371094 Z M 125.375 212.371094 " fill-opacity="1" fill-rule="nonzero"/></g><g clip-path="url(#cb15fbaef9)"><path fill="#457b55" d="M 126.25 106.28125 C 121.90625 106.28125 119.21875 102.457031 119.109375 102.296875 C 119.007812 102.144531 118.9375 101.976562 118.898438 101.800781 C 118.863281 101.621094 118.863281 101.441406 118.894531 101.261719 C 118.929688 101.082031 118.992188 100.914062 119.089844 100.761719 C 119.191406 100.605469 119.3125 100.476562 119.460938 100.371094 C 119.609375 100.269531 119.773438 100.195312 119.949219 100.15625 C 120.128906 100.113281 120.304688 100.109375 120.484375 100.140625 C 120.664062 100.171875 120.828125 100.234375 120.984375 100.332031 C 121.136719 100.429688 121.269531 100.550781 121.375 100.699219 C 121.410156 100.746094 123.378906 103.492188 126.25 103.492188 C 129.132812 103.492188 131.117188 100.722656 131.136719 100.695312 C 131.242188 100.546875 131.375 100.421875 131.527344 100.320312 C 131.683594 100.222656 131.851562 100.15625 132.03125 100.125 C 132.210938 100.09375 132.390625 100.097656 132.570312 100.136719 C 132.75 100.179688 132.914062 100.25 133.0625 100.359375 C 133.214844 100.464844 133.339844 100.59375 133.4375 100.75 C 133.535156 100.90625 133.597656 101.074219 133.632812 101.257812 C 133.664062 101.441406 133.660156 101.621094 133.617188 101.800781 C 133.578125 101.980469 133.507812 102.148438 133.402344 102.300781 C 133.289062 102.460938 130.59375 106.28125 126.25 106.28125 Z M 126.25 106.28125 " fill-opacity="1" fill-rule="nonzero"/></g><g clip-path="url(#546b89b6ef)"><path fill="#457b55" d="M 131.027344 89.019531 C 130.769531 89.019531 130.53125 88.953125 130.308594 88.820312 C 130.089844 88.683594 129.917969 88.5 129.800781 88.269531 C 129.679688 88.039062 129.628906 87.792969 129.648438 87.535156 C 129.664062 87.273438 129.746094 87.039062 129.894531 86.824219 C 130.003906 86.671875 132.539062 83.074219 136.632812 83.074219 C 140.726562 83.074219 143.257812 86.675781 143.363281 86.828125 C 143.464844 86.980469 143.535156 87.144531 143.570312 87.324219 C 143.609375 87.503906 143.609375 87.683594 143.578125 87.863281 C 143.542969 88.042969 143.476562 88.210938 143.378906 88.363281 C 143.28125 88.515625 143.160156 88.644531 143.007812 88.75 C 142.859375 88.855469 142.699219 88.929688 142.519531 88.96875 C 142.34375 89.007812 142.167969 89.011719 141.988281 88.984375 C 141.808594 88.953125 141.640625 88.886719 141.488281 88.792969 C 141.332031 88.695312 141.203125 88.574219 141.097656 88.425781 C 141.078125 88.394531 139.265625 85.863281 136.632812 85.863281 C 134.003906 85.863281 132.175781 88.402344 132.160156 88.425781 C 131.886719 88.824219 131.507812 89.023438 131.027344 89.019531 Z M 131.027344 89.019531 " fill-opacity="1" fill-rule="nonzero"/></g><g clip-path="url(#d03ea12338)"><path fill="#457b55" d="M 108.351562 89.019531 C 108.09375 89.019531 107.851562 88.953125 107.632812 88.820312 C 107.410156 88.683594 107.242188 88.5 107.121094 88.269531 C 107.003906 88.039062 106.953125 87.792969 106.96875 87.535156 C 106.984375 87.273438 107.070312 87.039062 107.21875 86.824219 C 107.324219 86.671875 109.863281 83.074219 113.953125 83.074219 C 118.046875 83.074219 120.578125 86.675781 120.683594 86.828125 C 120.789062 86.980469 120.863281 87.144531 120.902344 87.324219 C 120.941406 87.507812 120.945312 87.6875 120.914062 87.871094 C 120.878906 88.050781 120.816406 88.222656 120.714844 88.375 C 120.617188 88.53125 120.492188 88.664062 120.34375 88.769531 C 120.191406 88.875 120.027344 88.949219 119.847656 88.988281 C 119.667969 89.027344 119.488281 89.03125 119.308594 89 C 119.128906 88.964844 118.960938 88.898438 118.808594 88.800781 C 118.652344 88.703125 118.523438 88.574219 118.417969 88.425781 C 118.386719 88.375 116.574219 85.863281 113.953125 85.863281 C 111.320312 85.863281 109.5 88.402344 109.480469 88.425781 C 109.207031 88.824219 108.828125 89.023438 108.351562 89.019531 Z M 108.351562 89.019531 " fill-opacity="1" fill-rule="nonzero"/></g><g clip-path="url(#850284fc35)"><path fill="#924405" d="M 160.574219 129.3125 C 159.511719 128.113281 157.75 128.429688 156.328125 128.109375 C 146.054688 126.429688 136.398438 122.257812 127.175781 117.585938 C 126.738281 117.378906 126.28125 117.199219 125.820312 117.039062 L 125.15625 117.039062 C 123.554688 117.515625 122.136719 118.421875 120.625 119.117188 C 112.539062 123.0625 104.054688 126.460938 95.136719 128.015625 C 93.855469 128.273438 92.519531 128.253906 91.265625 128.625 C 90.269531 129.0625 89.539062 130.097656 89.59375 131.195312 C 89.492188 137.300781 89.714844 143.414062 90.195312 149.5 C 90.890625 157.246094 92.011719 165.039062 94.636719 172.398438 C 95.910156 175.8125 97.527344 179.171875 99.964844 181.925781 C 106.621094 189.746094 114.886719 196.160156 123.933594 201.039062 C 124.316406 201.230469 124.71875 201.382812 125.132812 201.507812 L 125.710938 201.507812 C 127.324219 201.054688 128.65625 199.988281 130.132812 199.238281 C 137.144531 195.117188 143.554688 189.988281 149.078125 184.039062 C 150.746094 182.164062 152.460938 180.289062 153.652344 178.070312 C 156.429688 173.171875 157.894531 167.671875 158.992188 162.195312 C 160.878906 152.210938 161.367188 142.015625 161.308594 131.878906 C 161.339844 130.972656 161.269531 129.980469 160.574219 129.3125 Z M 156.675781 159.949219 C 155.546875 166.101562 154.078125 172.363281 150.75 177.746094 C 147.792969 181.996094 143.980469 185.582031 140.082031 188.960938 C 135.582031 192.777344 130.636719 196.042969 125.445312 198.859375 C 116.339844 193.949219 108 187.496094 101.417969 179.515625 C 98.027344 175.207031 96.421875 169.84375 95.152344 164.605469 C 92.699219 153.617188 92.121094 142.300781 92.277344 131.070312 C 104.027344 129.753906 115.003906 124.953125 125.449219 119.695312 C 135.890625 124.960938 146.878906 129.746094 158.632812 131.066406 C 158.777344 140.722656 158.3125 150.417969 156.675781 159.949219 Z M 156.675781 159.949219 " fill-opacity="1" fill-rule="nonzero"/></g><path fill="#924405" d="M 97.554688 135.65625 C 97.75 146.046875 98.351562 156.546875 101.117188 166.617188 C 102.199219 170.328125 103.59375 174.101562 106.261719 177 C 111.625 183.371094 118.28125 188.570312 125.449219 192.800781 C 133.078125 188.296875 140.121094 182.679688 145.664062 175.761719 C 148.285156 172.183594 149.53125 167.839844 150.558594 163.59375 C 152.625 154.4375 153.179688 145.015625 153.335938 135.660156 C 143.574219 133.789062 134.308594 130.011719 125.445312 125.617188 C 116.582031 130.011719 107.320312 133.792969 97.554688 135.65625 Z M 97.554688 135.65625 " fill-opacity="1" fill-rule="nonzero"/></svg>